<svg width="275" height="151" viewBox="0 0 275 151" fill="none" xmlns="http://www.w3.org/2000/svg">
<path d="M251.706 5.60971L250.551 5.69928C247.228 5.95679 243.951 6.63306 240.798 7.71199L199.942 21.6912C199.714 21.7692 199.466 21.7623 199.243 21.6719L147.772 0.815422C146.571 0.328842 145.194 0.668133 144.356 1.65675L141.77 4.71C140.843 5.80465 140.82 7.40259 141.716 8.52292L161.375 33.1007C161.807 33.6418 161.572 34.4485 160.916 34.6719L117.794 49.3599C116.846 49.6829 116.909 51.0446 117.883 51.2788L124.648 52.9055C127.038 53.4804 129.473 53.8534 131.926 54.0205C144.249 54.8597 156.619 53.3172 168.359 49.4773L245.072 24.3846C249.25 23.0183 253.156 20.9321 256.614 18.2204C262.119 13.904 258.681 5.06918 251.706 5.60971Z" fill="#111111"/>
<path d="M129.765 42.6753L115.173 47.9564C114.785 48.0969 114.35 47.9844 114.079 47.673L104.601 36.7951C103.499 35.5305 103.648 33.6082 104.931 32.5285L105.959 31.6642C106.85 30.9145 108.095 30.7484 109.151 31.238L129.845 40.8277C130.655 41.2031 130.605 42.3714 129.765 42.6753Z" fill="#111111"/>
<path d="M16.3259 149C16.3258 124.582 21.9559 90.4482 92.8091 63.9304" stroke="#F45F4A" stroke-width="4" stroke-linecap="round" stroke-dasharray="14 14"/>
</svg>
