<svg width="160" height="37" viewBox="0 0 160 37" fill="none" xmlns="http://www.w3.org/2000/svg">
<path d="M8.18652 23.0747V23.9175C8.18652 28.0399 11.5284 31.3817 15.6508 31.3817H20.4664C24.5888 31.3817 27.9307 28.0399 27.9307 23.9175V23.0747" stroke="#414141" stroke-width="4.57487" stroke-linecap="round"/>
<circle cx="18.0585" cy="19.4631" r="3.61174" fill="#414141"/>
<path d="M8.18652 15.8514L17.6182 5.72958C17.8562 5.47413 18.261 5.47413 18.499 5.72958L27.9307 15.8514" stroke="#414141" stroke-width="4.57487" stroke-linecap="round"/>
<path d="M159.164 28.5134H149.612C148.911 28.5134 147.939 27.8119 147.319 27.2183C146.725 26.6517 146.159 25.7613 146.159 25.1677V8.6283H158.975C159.703 8.6283 159.811 9.24886 159.811 10.2741C159.811 11.3264 159.703 11.92 158.975 11.92H149.882V16.5877H158.354C159.083 16.5877 159.191 17.2083 159.191 18.2336C159.191 19.2858 159.083 19.8794 158.354 19.8794H149.882V24.736C149.882 25.1137 150.098 25.2217 150.422 25.2217H159.164C159.892 25.2217 160 25.8422 160 26.8675C160 27.9198 159.892 28.5134 159.164 28.5134Z" fill="#414141"/>
<path d="M131.739 25.2217H134.707C138.377 25.2217 139.915 22.2807 139.915 18.5573C139.915 14.8879 138.377 11.92 134.707 11.92H131.227V24.709C131.227 25.0868 131.416 25.2217 131.739 25.2217ZM134.599 28.5134H130.957C130.255 28.5134 129.284 27.8119 128.664 27.2183C128.07 26.6517 127.503 25.7613 127.503 25.1677V8.6283H134.599C140.238 8.6283 143.638 12.5945 143.638 18.5573C143.638 24.5741 140.238 28.5134 134.599 28.5134Z" fill="#414141"/>
<path d="M113.293 24.5202L111.863 28.5134H108.086L115.398 8.6283H118.258L125.543 28.5134H121.738L120.389 24.5202H113.293ZM116.882 14.4023L114.4 21.2285H119.256L116.882 14.4023Z" fill="#414141"/>
<path d="M100.802 28.8067C94.2726 28.8067 90.5762 24.3818 90.5762 18.473C90.5762 11.6198 95.3788 8.19318 100.802 8.19318C102.934 8.19318 104.714 8.7328 105.982 9.40732C106.576 9.75808 106.765 10.0549 106.225 11.242C105.686 12.3752 105.416 12.5641 104.768 12.3483C103.392 11.8356 102.34 11.4849 100.829 11.4849C96.9437 11.4849 94.2996 14.5337 94.2996 18.473C94.2996 22.3852 96.7279 25.515 100.829 25.515C102.34 25.515 103.392 25.1643 104.768 24.6516C105.416 24.3818 105.713 24.4628 106.252 25.7309C106.792 27.026 106.63 27.1879 105.982 27.5386C104.714 28.2401 102.987 28.8067 100.802 28.8067Z" fill="#414141"/>
<path d="M77.1331 21.2015V27.9737C77.1331 28.6213 76.4316 28.7562 75.2714 28.7562C74.1382 28.7562 73.4097 28.6213 73.4097 28.0007V8.6283H81.3691C86.2527 8.6283 88.1953 11.2994 88.1953 14.9149C88.1953 17.586 87.0891 19.7715 84.5259 20.7158L89.4364 28.5134H85.2004L80.7485 21.2015H77.1331ZM77.1331 17.9098H81.477C83.5546 17.9098 84.4719 16.9115 84.4719 14.9149C84.4719 12.9183 83.5276 11.92 81.3961 11.92H77.1331V17.9098Z" fill="#414141"/>
<path d="M59.1991 24.5202L57.7691 28.5134H53.9917L61.3036 8.6283H64.1636L71.4485 28.5134H67.6441L66.2951 24.5202H59.1991ZM62.7875 14.4023L60.3053 21.2285H65.1619L62.7875 14.4023Z" fill="#414141"/>
<path d="M40.6318 28.0007V8.6283H53.4479C54.1763 8.6283 54.2843 9.24886 54.2843 10.2741C54.2843 11.3264 54.1763 11.92 53.4479 11.92H44.3552V16.5877H53.178C53.9065 16.5877 54.0145 17.2083 54.0145 18.2336C54.0145 19.2858 53.9065 19.8794 53.178 19.8794H44.3552V27.9737C44.3552 28.6213 43.6537 28.7562 42.4935 28.7562C41.3603 28.7562 40.6318 28.6213 40.6318 28.0007Z" fill="#414141"/>
</svg>
