<svg width="420" height="251" viewBox="0 0 420 251" fill="none" xmlns="http://www.w3.org/2000/svg">
<rect x="0.75" y="0.75" width="418.5" height="249.5" rx="124.75" fill="#623532" stroke="#F45F4A" stroke-width="1.5"/>
<circle cx="294.5" cy="125.5" r="96.75" fill="#FDDFDB" fill-opacity="0.2" stroke="#FBBFB7" stroke-width="1.5" stroke-dasharray="6 6"/>
<path d="M254.431 133V118.859H259.744C262.986 118.859 264.714 120.676 264.724 123.371C264.714 125.295 263.835 126.721 262.175 127.395L265.232 133H262.4L259.626 127.824H256.97V133H254.431ZM256.97 125.695H259.353C261.267 125.705 262.126 124.885 262.126 123.371C262.126 121.867 261.267 120.988 259.353 120.988H256.97V125.695ZM271.545 133.215C268.352 133.215 266.389 131.086 266.389 127.766C266.389 124.484 268.381 122.258 271.408 122.258C274.006 122.258 276.252 123.889 276.252 127.609V128.391H268.85C268.889 130.197 269.953 131.271 271.565 131.262C272.658 131.271 273.391 130.803 273.713 130.168H276.154C275.705 132.004 274.006 133.215 271.545 133.215ZM268.86 126.691H273.869C273.86 125.246 272.883 124.191 271.447 124.191C269.953 124.191 268.947 125.344 268.86 126.691ZM284.401 125.422C284.245 124.621 283.581 124.104 282.526 124.113C281.462 124.104 280.681 124.641 280.69 125.363C280.681 125.91 281.12 126.32 282.194 126.574L283.991 126.945C285.993 127.385 286.97 128.312 286.979 129.836C286.97 131.828 285.222 133.215 282.448 133.215C279.753 133.215 278.161 132.004 277.897 129.973H280.436C280.583 130.881 281.286 131.33 282.448 131.32C283.649 131.33 284.431 130.842 284.44 130.051C284.431 129.436 283.952 129.045 282.897 128.82L281.198 128.449C279.226 128.049 278.2 127.014 278.21 125.5C278.2 123.537 279.899 122.258 282.487 122.258C285.017 122.258 286.579 123.498 286.765 125.422H284.401ZM289.074 133V122.395H291.574V133H289.074ZM288.898 119.523C288.898 118.781 289.552 118.176 290.344 118.176C291.135 118.176 291.789 118.781 291.789 119.523C291.789 120.275 291.135 120.881 290.344 120.891C289.552 120.881 288.898 120.275 288.898 119.523ZM298.102 133.195C295.612 133.186 293.727 131.193 293.727 127.707C293.727 124.172 295.661 122.258 298.122 122.258C299.987 122.258 300.768 123.381 301.149 124.133H301.247V118.859H303.727V133H301.286V131.32H301.149C300.749 132.102 299.938 133.186 298.102 133.195ZM296.266 127.688C296.266 129.689 297.145 131.145 298.786 131.145C300.397 131.145 301.305 129.758 301.305 127.688C301.305 125.627 300.407 124.299 298.786 124.289C297.126 124.299 296.266 125.715 296.266 127.688ZM311.154 133.215C307.96 133.215 305.997 131.086 305.997 127.766C305.997 124.484 307.99 122.258 311.017 122.258C313.615 122.258 315.861 123.889 315.861 127.609V128.391H308.458C308.497 130.197 309.562 131.271 311.173 131.262C312.267 131.271 312.999 130.803 313.322 130.168H315.763C315.314 132.004 313.615 133.215 311.154 133.215ZM308.468 126.691H313.478C313.468 125.246 312.492 124.191 311.056 124.191C309.562 124.191 308.556 125.344 308.468 126.691ZM320.494 126.789V133H317.994V122.395H320.377V124.191H320.514C320.992 123.01 322.076 122.258 323.658 122.258C325.856 122.258 327.301 123.703 327.291 126.242V133H324.811V126.633C324.811 125.207 324.039 124.357 322.74 124.367C321.422 124.357 320.494 125.246 320.494 126.789ZM335.167 122.395V124.309H333.077V129.816C333.077 130.832 333.585 131.037 334.21 131.047C334.503 131.057 334.991 131.027 335.304 131.008V133.039C335.011 133.088 334.532 133.146 333.897 133.137C332.022 133.146 330.577 132.219 330.597 130.227V124.309H329.073V122.395H330.597V119.855H333.077V122.395H335.167Z" fill="white"/>
<circle cx="125.5" cy="125.5" r="96.75" fill="#FBBFB7" fill-opacity="0.2" stroke="#F67F6E" stroke-width="1.5" stroke-dasharray="6 6"/>
<path d="M76.1184 118.859V133H73.8528L67.1536 123.332H67.0364V133H64.4973V118.859H66.802L73.4621 128.527H73.5989V118.859H76.1184ZM83.4473 133.215C80.3516 133.215 78.3692 131.018 78.3692 127.746C78.3692 124.445 80.3516 122.258 83.4473 122.258C86.5528 122.258 88.5352 124.445 88.5254 127.746C88.5352 131.018 86.5528 133.215 83.4473 133.215ZM80.8887 127.727C80.8887 129.67 81.7383 131.223 83.4668 131.223C85.1661 131.223 86.0157 129.67 86.0059 127.727C86.0157 125.783 85.1661 124.221 83.4668 124.23C81.7383 124.221 80.8887 125.783 80.8887 127.727ZM93.159 126.789V133H90.659V122.395H93.0418V124.191H93.1786C93.6571 123.01 94.7411 122.258 96.3231 122.258C98.5203 122.258 99.9657 123.703 99.9559 126.242V133H97.4754V126.633C97.4754 125.207 96.7039 124.357 95.4051 124.367C94.0868 124.357 93.159 125.246 93.159 126.789ZM108.964 126.086V128.137H102.597V126.086H108.964ZM111.606 133V122.395H114.028V124.152H114.145C114.526 122.932 115.541 122.238 116.762 122.238C117.036 122.238 117.426 122.268 117.661 122.297V124.602C117.436 124.523 116.918 124.455 116.508 124.445C115.122 124.455 114.106 125.412 114.106 126.75V133H111.606ZM123.7 133.215C120.507 133.215 118.544 131.086 118.544 127.766C118.544 124.484 120.536 122.258 123.564 122.258C126.161 122.258 128.407 123.889 128.407 127.609V128.391H121.005C121.044 130.197 122.109 131.271 123.72 131.262C124.814 131.271 125.546 130.803 125.868 130.168H128.31C127.861 132.004 126.161 133.215 123.7 133.215ZM121.015 126.691H126.025C126.015 125.246 125.038 124.191 123.603 124.191C122.109 124.191 121.103 125.344 121.015 126.691ZM136.557 125.422C136.4 124.621 135.736 124.104 134.682 124.113C133.617 124.104 132.836 124.641 132.846 125.363C132.836 125.91 133.275 126.32 134.35 126.574L136.147 126.945C138.148 127.385 139.125 128.312 139.135 129.836C139.125 131.828 137.377 133.215 134.604 133.215C131.908 133.215 130.316 132.004 130.053 129.973H132.592C132.738 130.881 133.441 131.33 134.604 131.32C135.805 131.33 136.586 130.842 136.596 130.051C136.586 129.436 136.107 129.045 135.053 128.82L133.354 128.449C131.381 128.049 130.355 127.014 130.365 125.5C130.355 123.537 132.055 122.258 134.643 122.258C137.172 122.258 138.734 123.498 138.92 125.422H136.557ZM141.229 133V122.395H143.729V133H141.229ZM141.054 119.523C141.054 118.781 141.708 118.176 142.499 118.176C143.29 118.176 143.944 118.781 143.944 119.523C143.944 120.275 143.29 120.881 142.499 120.891C141.708 120.881 141.054 120.275 141.054 119.523ZM150.257 133.195C147.767 133.186 145.882 131.193 145.882 127.707C145.882 124.172 147.816 122.258 150.277 122.258C152.142 122.258 152.923 123.381 153.304 124.133H153.402V118.859H155.882V133H153.441V131.32H153.304C152.904 132.102 152.093 133.186 150.257 133.195ZM148.422 127.688C148.422 129.689 149.3 131.145 150.941 131.145C152.552 131.145 153.461 129.758 153.461 127.688C153.461 125.627 152.562 124.299 150.941 124.289C149.281 124.299 148.422 125.715 148.422 127.688ZM163.309 133.215C160.116 133.215 158.153 131.086 158.153 127.766C158.153 124.484 160.145 122.258 163.172 122.258C165.77 122.258 168.016 123.889 168.016 127.609V128.391H160.614C160.653 130.197 161.717 131.271 163.329 131.262C164.422 131.271 165.155 130.803 165.477 130.168H167.918C167.469 132.004 165.77 133.215 163.309 133.215ZM160.623 126.691H165.633C165.623 125.246 164.647 124.191 163.211 124.191C161.717 124.191 160.711 125.344 160.623 126.691ZM172.65 126.789V133H170.15V122.395H172.532V124.191H172.669C173.148 123.01 174.232 122.258 175.814 122.258C178.011 122.258 179.456 123.703 179.447 126.242V133H176.966V126.633C176.966 125.207 176.195 124.357 174.896 124.367C173.577 124.357 172.65 125.246 172.65 126.789ZM187.322 122.395V124.309H185.232V129.816C185.232 130.832 185.74 131.037 186.365 131.047C186.658 131.057 187.147 131.027 187.459 131.008V133.039C187.166 133.088 186.688 133.146 186.053 133.137C184.178 133.146 182.732 132.219 182.752 130.227V124.309H181.229V122.395H182.752V119.855H185.232V122.395H187.322Z" fill="white"/>
</svg>
